<svg width="1075" height="430" viewBox="0 0 1075 430" fill="none" xmlns="http://www.w3.org/2000/svg">
<path d="M540.643 429.231C831.974 429.231 1068.14 413.596 1068.14 394.309C1068.14 375.023 831.974 359.388 540.643 359.388C249.313 359.388 13.1434 375.023 13.1434 394.309C13.1434 413.596 249.313 429.231 540.643 429.231Z" fill="#F2F2F2"/>
<path d="M520.426 12.0097C434.482 12.0097 372.775 67.1491 372.775 195.808C372.775 341.621 434.482 380.218 520.426 380.218C606.37 380.218 671.753 337.945 671.753 195.808C671.753 43.868 606.37 12.0097 520.426 12.0097ZM520.991 331.818C461.464 331.818 430.365 296.895 430.365 195.902C430.365 106.79 462.737 59.7972 522.264 59.7972C581.791 59.7972 614.163 90.6649 614.163 195.902C614.163 294.349 580.517 331.818 520.991 331.818Z" fill="#2F2E41"/>
<path d="M321.311 278.517H285.777V173.877C285.777 168.32 283.569 162.989 279.639 159.059C275.709 155.129 270.379 152.922 264.821 152.922H256.495C253.743 152.922 251.018 153.464 248.475 154.517C245.933 155.57 243.623 157.113 241.677 159.059C239.731 161.005 238.187 163.315 237.134 165.858C236.081 168.4 235.539 171.125 235.539 173.877V278.517H135.309C133.247 278.517 131.22 277.984 129.425 276.97C127.629 275.955 126.127 274.494 125.062 272.728C123.998 270.962 123.408 268.951 123.35 266.89C123.292 264.829 123.768 262.788 124.731 260.965L230.814 60.1844C232.136 57.6812 232.938 54.9359 233.17 52.1143C233.402 49.2927 233.061 46.4534 232.165 43.7675C231.27 41.0817 229.84 38.6051 227.961 36.4873C226.082 34.3696 223.793 32.6544 221.233 31.4455L214.971 28.4883C210.108 26.1921 204.549 25.853 199.444 27.5413C194.338 29.2296 190.077 32.8159 187.542 37.5584L58.1602 279.591C55.957 283.712 54.8043 288.314 54.8043 292.987V292.987C54.8043 296.719 55.5393 300.414 56.9673 303.861C58.3954 307.309 60.4885 310.441 63.1271 313.08C65.7658 315.719 68.8983 317.812 72.3459 319.24C75.7935 320.668 79.4885 321.403 83.2202 321.403H235.539V387.57C235.539 390.869 236.189 394.135 237.451 397.183C238.713 400.23 240.564 402.999 242.896 405.332C245.229 407.664 247.998 409.515 251.045 410.777C254.093 412.039 257.359 412.689 260.658 412.689H260.658C263.957 412.689 267.223 412.039 270.271 410.777C273.318 409.515 276.087 407.664 278.42 405.332C280.752 402.999 282.603 400.23 283.865 397.183C285.127 394.135 285.777 390.869 285.777 387.57V321.403H321.311C326.998 321.403 332.452 319.144 336.474 315.122C340.495 311.101 342.754 305.647 342.754 299.96V299.96C342.754 294.273 340.495 288.819 336.474 284.797C332.453 280.776 326.998 278.517 321.311 278.517V278.517Z" fill="#536DFE"/>
<path d="M979.308 278.517H943.774V173.877C943.774 168.32 941.566 162.989 937.636 159.059C933.706 155.129 928.376 152.922 922.818 152.922H914.491C911.739 152.922 909.014 153.464 906.472 154.517C903.929 155.57 901.619 157.113 899.673 159.059C897.727 161.005 896.184 163.315 895.131 165.858C894.077 168.4 893.535 171.125 893.535 173.877V278.517H793.305C791.243 278.517 789.216 277.984 787.421 276.97C785.626 275.955 784.123 274.494 783.059 272.728C781.995 270.962 781.405 268.951 781.347 266.89C781.289 264.829 781.764 262.788 782.728 260.965L888.81 60.1844C890.133 57.6812 890.934 54.9359 891.167 52.1144C891.399 49.2928 891.057 46.4534 890.162 43.7675C889.266 41.0817 887.836 38.6051 885.957 36.4873C884.078 34.3695 881.79 32.6544 879.23 31.4455L872.967 28.4883C868.105 26.1921 862.546 25.853 857.44 27.5413C852.334 29.2296 848.073 32.8159 845.538 37.5584L716.157 279.591C713.953 283.712 712.801 288.314 712.801 292.987V292.987C712.801 300.523 715.795 307.751 721.124 313.08C726.453 318.409 733.68 321.403 741.217 321.403H893.535V387.57C893.535 394.232 896.182 400.621 900.893 405.332C905.603 410.043 911.992 412.689 918.654 412.689V412.689C925.316 412.689 931.706 410.043 936.416 405.332C941.127 400.621 943.773 394.232 943.773 387.57V321.403H979.308C984.995 321.403 990.449 319.144 994.47 315.122C998.492 311.101 1000.75 305.647 1000.75 299.96V299.96C1000.75 294.273 998.492 288.819 994.47 284.797C990.449 280.776 984.995 278.517 979.308 278.517Z" fill="#536DFE"/>
<path d="M331.114 266.264H295.58V161.624C295.58 158.872 295.038 156.147 293.984 153.605C292.931 151.062 291.388 148.752 289.442 146.806C287.496 144.86 285.186 143.317 282.643 142.263C280.101 141.21 277.376 140.668 274.624 140.668H266.297C260.74 140.668 255.409 142.876 251.479 146.806C247.549 150.736 245.341 156.066 245.341 161.624V266.264H145.111C143.049 266.264 141.023 265.731 139.227 264.716C137.432 263.702 135.929 262.241 134.865 260.475C133.801 258.709 133.211 256.698 133.153 254.637C133.095 252.576 133.571 250.535 134.534 248.712L240.616 47.9312C241.939 45.428 242.74 42.6827 242.973 39.8611C243.205 37.0395 242.863 34.2001 241.968 31.5143C241.072 28.8285 239.642 26.3519 237.763 24.2341C235.884 22.1163 233.596 20.4012 231.036 19.1923L224.773 16.2351C219.911 13.9389 214.352 13.5998 209.246 15.2881C204.141 16.9763 199.879 20.5627 197.344 25.3051L67.9627 267.338C65.7595 271.459 64.6069 276.06 64.6069 280.734V280.734C64.6069 288.27 67.6007 295.498 72.9297 300.827C78.2587 306.156 85.4864 309.15 93.0227 309.15H245.341V375.317C245.341 378.616 245.991 381.882 247.254 384.93C248.516 387.977 250.366 390.746 252.699 393.079C255.031 395.411 257.8 397.262 260.848 398.524C263.895 399.786 267.162 400.436 270.46 400.436H270.461C277.122 400.436 283.512 397.789 288.222 393.079C292.933 388.368 295.58 381.979 295.58 375.317V309.15H331.114C333.93 309.15 336.718 308.595 339.32 307.517C341.921 306.44 344.285 304.86 346.276 302.869C348.268 300.878 349.847 298.514 350.925 295.913C352.002 293.311 352.557 290.523 352.557 287.707V287.707C352.557 284.891 352.002 282.102 350.925 279.501C349.847 276.899 348.268 274.535 346.276 272.544C344.285 270.553 341.921 268.973 339.32 267.896C336.718 266.818 333.93 266.264 331.114 266.264V266.264Z" stroke="#3F3D56" stroke-miterlimit="10"/>
<path d="M997.688 266.264H962.153V161.624C962.153 156.066 959.945 150.736 956.016 146.806C952.086 142.876 946.755 140.668 941.197 140.668H932.871C930.119 140.668 927.394 141.21 924.852 142.263C922.309 143.317 919.999 144.86 918.053 146.806C916.107 148.752 914.564 151.062 913.51 153.605C912.457 156.147 911.915 158.872 911.915 161.624V266.264H811.685C809.623 266.264 807.596 265.731 805.801 264.716C804.006 263.702 802.503 262.241 801.439 260.475C800.374 258.709 799.785 256.698 799.727 254.637C799.669 252.576 800.144 250.535 801.108 248.712L907.19 47.9312C908.512 45.428 909.314 42.6827 909.546 39.8611C909.779 37.0395 909.437 34.2001 908.542 31.5143C907.646 28.8285 906.216 26.3519 904.337 24.2341C902.458 22.1163 900.17 20.4012 897.61 19.1923L891.347 16.2351C886.485 13.9389 880.925 13.5998 875.82 15.2881C870.714 16.9763 866.453 20.5627 863.918 25.3051L734.536 267.338C732.333 271.459 731.181 276.06 731.181 280.734C731.181 288.27 734.174 295.498 739.503 300.827C744.832 306.156 752.06 309.15 759.596 309.15H911.915V375.317C911.915 381.979 914.562 388.368 919.272 393.079C923.983 397.789 930.372 400.436 937.034 400.436V400.436C943.696 400.436 950.085 397.789 954.796 393.079C959.507 388.368 962.153 381.979 962.153 375.317V309.15H997.688C1000.5 309.15 1003.29 308.595 1005.89 307.517C1008.49 306.44 1010.86 304.86 1012.85 302.869C1014.84 300.878 1016.42 298.514 1017.5 295.913C1018.58 293.311 1019.13 290.523 1019.13 287.707V287.707C1019.13 282.02 1016.87 276.565 1012.85 272.544C1008.83 268.523 1003.37 266.264 997.688 266.264V266.264Z" stroke="#3F3D56" stroke-miterlimit="10"/>
<path d="M540.031 0.981873C454.087 0.981873 392.38 56.1212 392.38 184.78C392.38 330.593 454.087 369.19 540.031 369.19C625.975 369.19 691.358 326.917 691.358 184.78C691.358 32.8402 625.975 0.981873 540.031 0.981873ZM540.596 320.79C481.069 320.79 449.97 285.867 449.97 184.874C449.97 95.7621 482.342 48.7693 541.869 48.7693C601.396 48.7693 633.768 79.6371 633.768 184.874C633.768 283.321 600.123 320.79 540.596 320.79V320.79Z" stroke="#3F3D56" stroke-miterlimit="10"/>
<path d="M1006.86 264.55C1009.89 265.651 1013.14 266.034 1016.34 265.667C1019.54 265.301 1022.62 264.196 1025.32 262.439C1028.02 260.683 1030.28 258.322 1031.91 255.544C1033.55 252.766 1034.51 249.647 1034.74 246.431C1034.96 243.216 1034.43 239.992 1033.2 237.015C1031.96 234.038 1030.05 231.388 1027.62 229.275C1025.19 227.161 1022.3 225.642 1019.17 224.837C1016.05 224.032 1012.79 223.962 1009.64 224.634L1010.16 235.347L1005.09 226.166C1000.11 228.503 996.271 232.72 994.404 237.889C993.741 239.699 993.338 241.595 993.207 243.519C992.887 248.032 994.048 252.527 996.512 256.322C998.976 260.117 1002.61 263.006 1006.86 264.55V264.55Z" fill="#57B894"/>
<path d="M1031.94 388.793C1030.15 379.683 1037.9 371.606 1045.56 366.357C1053.22 361.107 1062.17 355.949 1064.78 347.04C1068.53 334.236 1057.35 322.51 1048.64 312.398C1042.19 304.894 1036.64 296.65 1032.12 287.841C1030.31 284.308 1028.64 280.615 1028.17 276.674C1027.48 270.999 1029.31 265.351 1031.14 259.938C1037.26 241.903 1043.8 224.02 1050.77 206.288" stroke="#3F3D56" stroke-miterlimit="10"/>
<path d="M1007.72 261.792C1010.75 262.893 1013.99 263.276 1017.2 262.909C1020.4 262.543 1023.47 261.438 1026.17 259.682C1028.88 257.925 1031.13 255.565 1032.77 252.787C1034.4 250.009 1035.37 246.889 1035.59 243.673C1035.82 240.458 1035.29 237.234 1034.06 234.257C1032.82 231.28 1030.91 228.63 1028.48 226.517C1026.04 224.403 1023.15 222.884 1020.03 222.079C1016.91 221.274 1013.64 221.204 1010.49 221.876L1011.01 232.589L1005.95 223.408C1000.97 225.745 997.128 229.962 995.262 235.131C994.599 236.941 994.196 238.837 994.064 240.761C993.745 245.274 994.905 249.769 997.369 253.564C999.833 257.359 1003.47 260.248 1007.72 261.792V261.792Z" stroke="#3F3D56" stroke-miterlimit="10"/>
<path d="M1029.4 202.588C1030.59 199.308 1032.58 196.38 1035.2 194.073C1037.82 191.767 1040.97 190.157 1044.38 189.391L1046.09 199.574L1049.27 188.879C1053.68 188.944 1057.96 190.41 1061.48 193.064C1065 195.718 1067.59 199.423 1068.87 203.645C1070.15 207.866 1070.06 212.386 1068.6 216.551C1067.15 220.715 1064.41 224.31 1060.78 226.815C1057.15 229.32 1052.81 230.607 1048.4 230.489C1043.99 230.371 1039.73 228.854 1036.24 226.158C1032.75 223.462 1030.21 219.726 1028.98 215.49C1027.74 211.253 1027.89 206.735 1029.4 202.588H1029.4Z" fill="#57B894"/>
<path d="M1030.54 198.911C1031.73 195.631 1033.72 192.703 1036.34 190.396C1038.96 188.09 1042.12 186.479 1045.52 185.713L1047.23 195.897L1050.41 185.201C1054.82 185.267 1059.1 186.732 1062.62 189.387C1066.15 192.041 1068.74 195.746 1070.02 199.968C1071.3 204.189 1071.2 208.709 1069.75 212.873C1068.29 217.038 1065.55 220.633 1061.92 223.138C1058.29 225.643 1053.96 226.93 1049.55 226.812C1045.14 226.694 1040.88 225.177 1037.38 222.481C1033.89 219.785 1031.35 216.049 1030.12 211.813C1028.89 207.576 1029.04 203.058 1030.54 198.911H1030.54Z" stroke="#3F3D56" stroke-miterlimit="10"/>
<path d="M1044.99 312.604C1049.8 314.347 1055.07 314.261 1059.82 312.363C1064.56 310.464 1068.44 306.886 1070.72 302.311C1072.99 297.735 1073.51 292.482 1072.16 287.553C1070.81 282.623 1067.7 278.362 1063.41 275.582L1060.97 283.801L1059.24 273.497C1059.22 273.489 1059.2 273.482 1059.18 273.477C1056.62 272.543 1053.89 272.125 1051.16 272.246C1048.42 272.367 1045.74 273.025 1043.27 274.182C1040.79 275.339 1038.56 276.973 1036.72 278.991C1034.87 281.008 1033.44 283.369 1032.51 285.94C1031.58 288.51 1031.16 291.238 1031.29 293.97C1031.41 296.701 1032.07 299.381 1033.23 301.857C1034.39 304.334 1036.02 306.557 1038.04 308.401C1040.06 310.245 1042.42 311.674 1044.99 312.604H1044.99Z" fill="#57B894"/>
<path d="M1045.98 308.88C1050.79 310.622 1056.06 310.536 1060.81 308.638C1065.55 306.74 1069.43 303.162 1071.71 298.586C1073.99 294.011 1074.5 288.758 1073.15 283.828C1071.8 278.899 1068.69 274.638 1064.4 271.857L1061.96 280.076L1060.23 269.772C1060.21 269.764 1060.19 269.758 1060.17 269.752C1057.61 268.818 1054.88 268.4 1052.15 268.521C1049.41 268.642 1046.73 269.3 1044.26 270.457C1041.78 271.615 1039.55 273.249 1037.71 275.266C1035.86 277.284 1034.43 279.645 1033.5 282.215C1032.57 284.785 1032.15 287.514 1032.28 290.245C1032.4 292.976 1033.06 295.656 1034.22 298.133C1035.38 300.609 1037.01 302.833 1039.03 304.677C1041.05 306.521 1043.41 307.949 1045.98 308.88H1045.98Z" stroke="#3F3D56" stroke-miterlimit="10"/>
<path d="M1023.32 347.167C1024.15 351.867 1026.57 356.14 1030.17 359.27C1033.77 362.4 1038.34 364.195 1043.11 364.356C1047.88 364.517 1052.56 363.032 1056.37 360.152C1060.17 357.272 1062.87 353.171 1064.01 348.537C1065.15 343.903 1064.66 339.018 1062.63 334.701C1060.59 330.384 1057.14 326.897 1052.84 324.826C1048.54 322.755 1043.66 322.225 1039.02 323.326C1034.37 324.426 1030.25 327.09 1027.33 330.87L1036.61 344.826L1023.94 337.418C1022.95 340.572 1022.74 343.915 1023.32 347.167V347.167Z" fill="#57B894"/>
<path d="M1024.18 344.409C1025.01 349.109 1027.42 353.382 1031.03 356.512C1034.63 359.642 1039.2 361.437 1043.97 361.598C1048.74 361.759 1053.42 360.274 1057.22 357.394C1061.03 354.514 1063.73 350.413 1064.87 345.779C1066.01 341.145 1065.52 336.26 1063.49 331.943C1061.45 327.626 1058 324.139 1053.7 322.068C1049.4 319.997 1044.52 319.467 1039.87 320.568C1035.23 321.668 1031.1 324.332 1028.19 328.112L1037.46 342.068L1024.79 334.661C1023.81 337.814 1023.6 341.157 1024.18 344.409V344.409Z" stroke="#3F3D56" stroke-miterlimit="10"/>
<path d="M9.00746 315.249C10.9978 315.972 13.1289 316.224 15.2329 315.983C17.337 315.743 19.3563 315.017 21.1319 313.862C22.9075 312.708 24.3908 311.157 25.4648 309.332C26.5388 307.507 27.1742 305.457 27.3208 303.345C27.4675 301.232 27.1215 299.114 26.3101 297.158C25.4987 295.202 24.244 293.461 22.645 292.073C21.0459 290.684 19.1463 289.686 17.0957 289.157C15.0451 288.628 12.8997 288.582 10.8285 289.024L11.1707 296.062L7.84085 290.03C4.57278 291.566 2.04805 294.336 0.821494 297.732C0.385892 298.922 0.121078 300.167 0.034953 301.431C-0.17523 304.397 0.586979 307.35 2.20607 309.843C3.82517 312.337 6.2129 314.234 9.00746 315.249V315.249Z" fill="#57B894"/>
<path d="M25.4837 396.879C24.3083 390.893 29.4017 385.587 34.4329 382.138C39.464 378.689 45.3427 375.3 47.0593 369.446C49.5264 361.034 42.1776 353.33 36.4579 346.686C32.2144 341.756 28.5702 336.34 25.6016 330.551C24.311 328.278 23.4319 325.794 23.0049 323.215C22.5539 319.486 23.7519 315.775 24.9588 312.219C28.9794 300.37 33.2782 288.62 37.8551 276.97" stroke="#3F3D56" stroke-miterlimit="10"/>
<path d="M9.57064 313.437C11.5609 314.16 13.6921 314.412 15.7961 314.171C17.9001 313.931 19.9195 313.205 21.6951 312.05C23.4707 310.896 24.9539 309.345 26.0279 307.52C27.1019 305.695 27.7373 303.645 27.884 301.533C28.0307 299.42 27.6847 297.302 26.8733 295.346C26.0618 293.39 24.8072 291.649 23.2081 290.261C21.6091 288.872 19.7094 287.874 17.6589 287.345C15.6083 286.816 13.4628 286.77 11.3916 287.212L11.7339 294.25L8.40403 288.218C5.13595 289.754 2.61122 292.524 1.38467 295.92C0.949069 297.11 0.684259 298.355 0.598129 299.619C0.387932 302.585 1.15014 305.538 2.76923 308.031C4.38833 310.525 6.77607 312.422 9.57064 313.437V313.437Z" stroke="#3F3D56" stroke-miterlimit="10"/>
<path d="M23.8124 274.539C24.5935 272.384 25.9044 270.46 27.6244 268.945C29.3444 267.429 31.4181 266.371 33.6545 265.868L34.7803 272.559L36.8677 265.532C39.7659 265.575 42.5754 266.537 44.8907 268.281C47.206 270.025 48.9071 272.46 49.7486 275.233C50.5901 278.007 50.5283 280.976 49.5723 283.712C48.6162 286.449 46.8152 288.81 44.4295 290.456C42.0437 292.102 39.1966 292.948 36.2991 292.87C33.4016 292.793 30.6038 291.796 28.3095 290.025C26.0152 288.254 24.3432 285.799 23.5349 283.016C22.7265 280.232 22.8237 277.264 23.8124 274.539V274.539Z" fill="#57B894"/>
<path d="M24.5632 272.123C25.3443 269.968 26.6552 268.044 28.3752 266.529C30.0952 265.013 32.169 263.955 34.4053 263.452L35.5312 270.143L37.6186 263.116C40.5168 263.158 43.3263 264.121 45.6415 265.865C47.9568 267.609 49.658 270.044 50.4995 272.817C51.3409 275.591 51.2792 278.56 50.3231 281.296C49.367 284.033 47.5661 286.394 45.1803 288.04C42.7946 289.686 39.9474 290.532 37.0499 290.454C34.1525 290.377 31.3546 289.38 29.0603 287.609C26.7661 285.838 25.094 283.383 24.2857 280.599C23.4774 277.816 23.5746 274.848 24.5632 272.123V272.123Z" stroke="#3F3D56" stroke-miterlimit="10"/>
<path d="M34.0576 346.822C37.214 347.967 40.6813 347.91 43.7987 346.663C46.9162 345.416 49.4656 343.065 50.9612 340.059C52.4568 337.052 52.7939 333.601 51.9083 330.362C51.0227 327.124 48.9763 324.324 46.1592 322.497L44.5553 327.897L43.418 321.127C43.4067 321.122 43.3951 321.118 43.3832 321.114C41.6948 320.5 39.9021 320.225 38.1073 320.304C36.3126 320.384 34.551 320.816 32.9234 321.576C31.2957 322.336 29.8338 323.41 28.6213 324.736C27.4088 326.061 26.4693 327.613 25.8567 329.301C25.2441 330.99 24.9703 332.783 25.0509 334.578C25.1315 336.373 25.565 338.134 26.3266 339.761C27.0882 341.388 28.163 342.849 29.4895 344.061C30.816 345.272 32.3683 346.21 34.0576 346.822V346.822Z" fill="#57B894"/>
<path d="M34.7081 344.374C37.8645 345.519 41.3319 345.463 44.4493 344.216C47.5667 342.968 50.1162 340.618 51.6118 337.611C53.1074 334.605 53.4445 331.154 52.5589 327.915C51.6733 324.676 49.6269 321.877 46.8098 320.05L45.2059 325.45L44.0685 318.68C44.0573 318.675 44.0457 318.67 44.0337 318.667C42.3458 318.055 40.5537 317.781 38.7599 317.861C36.9661 317.941 35.2057 318.374 33.5791 319.135C30.2941 320.671 27.7539 323.449 26.5172 326.858C25.2806 330.267 25.4488 334.028 26.9849 337.313C28.521 340.597 31.2991 343.138 34.7081 344.374V344.374Z" stroke="#3F3D56" stroke-miterlimit="10"/>
<path d="M19.822 369.53C20.3647 372.618 21.9528 375.426 24.3198 377.482C26.6868 379.538 29.6889 380.718 32.8226 380.823C35.9562 380.929 39.0309 379.954 41.5309 378.061C44.0309 376.169 45.8042 373.475 46.5535 370.43C47.3027 367.385 46.9823 364.176 45.6459 361.339C44.3096 358.503 42.0386 356.212 39.2139 354.852C36.3891 353.491 33.1823 353.143 30.1314 353.866C27.0804 354.589 24.3708 356.339 22.457 358.822L28.5493 367.992L20.2249 363.125C19.5795 365.197 19.4413 367.393 19.822 369.53V369.53Z" fill="#57B894"/>
<path d="M20.3851 367.718C20.9278 370.806 22.5159 373.614 24.8829 375.67C27.25 377.726 30.252 378.906 33.3857 379.011C36.5194 379.117 39.594 378.142 42.094 376.249C44.594 374.357 46.3673 371.663 47.1166 368.618C47.8658 365.573 47.5454 362.364 46.2091 359.527C44.8727 356.691 42.6017 354.4 39.777 353.039C36.9522 351.679 33.7454 351.331 30.6945 352.054C27.6435 352.777 24.9339 354.527 23.0201 357.01L29.1124 366.18L20.788 361.313C20.1426 363.385 20.0044 365.581 20.3851 367.718V367.718Z" stroke="#3F3D56" stroke-miterlimit="10"/>
<path d="M480.946 186.116C490.335 186.116 497.946 176.266 497.946 164.116C497.946 151.965 490.335 142.116 480.946 142.116C471.557 142.116 463.946 151.965 463.946 164.116C463.946 176.266 471.557 186.116 480.946 186.116Z" fill="#2F2E41"/>
<path d="M573.446 186.616C582.835 186.616 590.446 176.766 590.446 164.616C590.446 152.465 582.835 142.616 573.446 142.616C564.057 142.616 556.446 152.465 556.446 164.616C556.446 176.766 564.057 186.616 573.446 186.616Z" fill="#2F2E41"/>
<path d="M560.446 229.616C560.446 239.556 546.566 247.616 529.446 247.616C512.326 247.616 498.446 239.556 498.446 229.616C498.446 221.006 508.856 213.806 522.766 212.046C524.981 211.753 527.212 211.61 529.446 211.616C533.189 211.603 536.922 212.006 540.576 212.816C552.196 215.406 560.446 221.956 560.446 229.616Z" fill="#2F2E41"/>
<path d="M484.946 181.116C494.335 181.116 501.946 171.266 501.946 159.116C501.946 146.965 494.335 137.116 484.946 137.116C475.557 137.116 467.946 146.965 467.946 159.116C467.946 171.266 475.557 181.116 484.946 181.116Z" stroke="#3F3D56" stroke-miterlimit="10"/>
<path d="M577.446 181.616C586.835 181.616 594.446 171.766 594.446 159.616C594.446 147.465 586.835 137.616 577.446 137.616C568.057 137.616 560.446 147.465 560.446 159.616C560.446 171.766 568.057 181.616 577.446 181.616Z" stroke="#3F3D56" stroke-miterlimit="10"/>
<path d="M533.446 242.616C550.567 242.616 564.446 234.557 564.446 224.616C564.446 214.674 550.567 206.616 533.446 206.616C516.325 206.616 502.446 214.674 502.446 224.616C502.446 234.557 516.325 242.616 533.446 242.616Z" stroke="#3F3D56" stroke-miterlimit="10"/>
<path d="M540.946 214.316C540.954 215.573 540.482 216.786 539.626 217.708C539.222 218.149 538.73 218.502 538.183 218.744C537.636 218.986 537.044 219.113 536.446 219.116H526.446C525.214 219.073 524.049 218.544 523.205 217.644C522.362 216.745 521.909 215.548 521.946 214.316C521.941 213.341 522.226 212.386 522.766 211.574C524.979 211.263 527.211 211.109 529.446 211.116C533.193 211.103 536.929 211.533 540.576 212.396C540.823 213.005 540.948 213.658 540.946 214.316V214.316Z" fill="white"/>
<path d="M484.946 158.116C487.707 158.116 489.946 155.877 489.946 153.116C489.946 150.354 487.707 148.116 484.946 148.116C482.185 148.116 479.946 150.354 479.946 153.116C479.946 155.877 482.185 158.116 484.946 158.116Z" fill="white"/>
<path d="M577.946 158.116C580.707 158.116 582.946 155.877 582.946 153.116C582.946 150.354 580.707 148.116 577.946 148.116C575.185 148.116 572.946 150.354 572.946 153.116C572.946 155.877 575.185 158.116 577.946 158.116Z" fill="white"/>
<path opacity="0.3" d="M582.946 205.116C585.707 205.116 587.946 202.877 587.946 200.116C587.946 197.354 585.707 195.116 582.946 195.116C580.185 195.116 577.946 197.354 577.946 200.116C577.946 202.877 580.185 205.116 582.946 205.116Z" fill="#536DFE"/>
<path opacity="0.3" d="M460.946 205.116C463.707 205.116 465.946 202.877 465.946 200.116C465.946 197.354 463.707 195.116 460.946 195.116C458.185 195.116 455.946 197.354 455.946 200.116C455.946 202.877 458.185 205.116 460.946 205.116Z" fill="#536DFE"/>
</svg>
