<svg width="156" height="155" viewBox="0 0 156 155" fill="none" xmlns="http://www.w3.org/2000/svg">
<path d="M78.3346 154.75C121.068 154.75 155.71 120.108 155.71 77.3752C155.71 34.6421 121.068 0 78.3346 0C35.6014 0 0.959351 34.6421 0.959351 77.3752C0.959351 120.108 35.6014 154.75 78.3346 154.75Z" fill="#536DFE"/>
<path d="M110.39 111.089H46.2791C45.1068 111.088 43.9829 110.621 43.1539 109.792C42.325 108.964 41.8588 107.84 41.8577 106.667V67.9797C41.8589 66.8074 42.3251 65.6835 43.1541 64.8546C43.983 64.0257 45.1069 63.5595 46.2791 63.5582H110.39C111.562 63.5595 112.686 64.0257 113.515 64.8546C114.344 65.6835 114.81 66.8074 114.811 67.9797V106.667C114.81 107.84 114.344 108.964 113.515 109.792C112.686 110.621 111.562 111.088 110.39 111.089ZM46.2791 67.9797V106.667H110.393L110.39 67.9797L46.2791 67.9797Z" fill="white"/>
<path d="M98.2311 67.9797H58.438V50.2939C58.438 37.484 66.806 28.1867 78.3345 28.1867C89.8631 28.1867 98.231 37.484 98.231 50.2939L98.2311 67.9797ZM62.8595 63.5582H93.8096V50.2939C93.8096 39.8809 87.4462 32.6081 78.3346 32.6081C69.223 32.6081 62.8596 39.8809 62.8596 50.2939L62.8595 63.5582Z" fill="white"/>
<path d="M78.3346 90.6395C80.7765 90.6395 82.756 88.66 82.756 86.2181C82.756 83.7762 80.7765 81.7967 78.3346 81.7967C75.8927 81.7967 73.9131 83.7762 73.9131 86.2181C73.9131 88.66 75.8927 90.6395 78.3346 90.6395Z" fill="white"/>
</svg>
