<svg width="598" height="417" viewBox="0 0 598 417" fill="none" xmlns="http://www.w3.org/2000/svg">
<path d="M579.209 416.963H18.7911C13.8074 416.963 9.0278 414.983 5.50378 411.459C1.97977 407.935 0 403.156 0 398.172C203.151 374.562 402.485 374.562 598 398.172C598 403.156 596.02 407.935 592.496 411.459C588.972 414.983 584.193 416.963 579.209 416.963Z" fill="#2F2E41"/>
<path d="M598 399.277L0 398.172L69.3061 281.556L69.6377 281.004V23.9964C69.6374 20.8768 70.2517 17.7878 71.4454 14.9057C72.639 12.0236 74.3887 9.40485 76.5946 7.19902C78.8004 4.99319 81.4191 3.24347 84.3012 2.0498C87.1833 0.856138 90.2724 0.241897 93.3919 0.242157H501.292C504.412 0.241897 507.501 0.856138 510.383 2.0498C513.265 3.24347 515.883 4.99319 518.089 7.19902C520.295 9.40485 522.045 12.0236 523.239 14.9057C524.432 17.7878 525.046 20.8768 525.046 23.9964V282.772L598 399.277Z" fill="#9B9AAD"/>
<path d="M92.8503 16.8225C90.7989 16.8248 88.8321 17.6408 87.3816 19.0914C85.931 20.5419 85.1151 22.5086 85.1128 24.5601V258.896C85.1152 260.948 85.9311 262.915 87.3817 264.365C88.8322 265.816 90.7989 266.632 92.8503 266.634H505.15C507.201 266.632 509.168 265.816 510.618 264.365C512.069 262.914 512.885 260.948 512.887 258.896V24.5601C512.885 22.5087 512.069 20.542 510.618 19.0915C509.168 17.6409 507.201 16.8249 505.15 16.8225H92.8503Z" fill="white"/>
<path d="M94.578 297.584C93.944 297.585 93.3236 297.767 92.7899 298.109C92.2561 298.451 91.8312 298.939 91.5652 299.514L70.2098 345.939C69.9773 346.445 69.8757 347 69.9141 347.555C69.9526 348.11 70.13 348.646 70.43 349.114C70.73 349.582 71.1429 349.968 71.6308 350.235C72.1187 350.501 72.6659 350.641 73.222 350.641H522.314C522.879 350.641 523.435 350.497 523.929 350.222C524.423 349.946 524.838 349.549 525.135 349.069C525.432 348.588 525.601 348.039 525.626 347.474C525.652 346.909 525.532 346.348 525.279 345.842L502.067 299.417C501.793 298.865 501.37 298.401 500.846 298.077C500.322 297.753 499.718 297.582 499.102 297.584H94.578Z" fill="#2F2E41"/>
<path d="M297.342 12.9538C300.089 12.9538 302.316 10.7268 302.316 7.97967C302.316 5.23254 300.089 3.00555 297.342 3.00555C294.595 3.00555 292.368 5.23254 292.368 7.97967C292.368 10.7268 294.595 12.9538 297.342 12.9538Z" fill="white"/>
<path d="M253.2 359.484C252.471 359.485 251.763 359.726 251.184 360.169C250.605 360.613 250.189 361.234 249.998 361.938L244.641 381.834C244.509 382.326 244.491 382.841 244.59 383.341C244.689 383.84 244.901 384.31 245.211 384.714C245.521 385.118 245.919 385.445 246.375 385.671C246.832 385.896 247.334 386.013 247.843 386.013H349.717C350.246 386.013 350.767 385.887 351.237 385.644C351.706 385.402 352.112 385.051 352.418 384.62C352.725 384.189 352.924 383.692 352.999 383.168C353.074 382.645 353.023 382.112 352.85 381.612L345.963 361.715C345.737 361.064 345.314 360.499 344.752 360.099C344.191 359.7 343.519 359.485 342.829 359.484H253.2Z" fill="#2F2E41"/>
<path d="M525.046 277.135V281.556H69.306L69.649 281.004V277.135H525.046Z" fill="#2F2E41"/>
<path d="M458.32 187.149H139.68C138.116 187.148 136.616 186.525 135.51 185.419C134.403 184.313 133.781 182.813 133.779 181.249V102.208C133.781 100.643 134.403 99.1436 135.51 98.0374C136.616 96.9312 138.116 96.3089 139.68 96.307H458.32C459.884 96.3089 461.384 96.9312 462.49 98.0374C463.597 99.1436 464.219 100.643 464.221 102.208V181.249C464.219 182.813 463.597 184.313 462.49 185.419C461.384 186.525 459.884 187.148 458.32 187.149V187.149ZM139.68 98.6674C138.741 98.6684 137.841 99.0417 137.178 99.7055C136.514 100.369 136.141 101.269 136.14 102.208V181.249C136.141 182.187 136.514 183.087 137.178 183.751C137.841 184.415 138.741 184.788 139.68 184.789H458.32C459.259 184.788 460.159 184.415 460.822 183.751C461.486 183.087 461.859 182.187 461.86 181.249V102.208C461.859 101.269 461.486 100.369 460.822 99.7054C460.159 99.0417 459.259 98.6684 458.32 98.6673L139.68 98.6674Z" fill="#E6E6E6"/>
<path d="M189.19 162.732C202.465 162.732 213.227 151.97 213.227 138.695C213.227 125.421 202.465 114.659 189.19 114.659C175.915 114.659 165.154 125.421 165.154 138.695C165.154 151.97 175.915 162.732 189.19 162.732Z" fill="#E6E6E6"/>
<path d="M244.703 122.671C244.176 122.67 243.655 122.773 243.168 122.974C242.681 123.175 242.239 123.47 241.866 123.842C241.494 124.214 241.198 124.656 240.996 125.143C240.794 125.629 240.691 126.151 240.691 126.677C240.691 127.204 240.794 127.725 240.996 128.212C241.198 128.698 241.494 129.14 241.866 129.512C242.239 129.884 242.681 130.179 243.168 130.38C243.655 130.581 244.176 130.684 244.703 130.683H433.561C434.623 130.683 435.642 130.261 436.393 129.51C437.145 128.759 437.567 127.74 437.567 126.677C437.567 125.615 437.145 124.596 436.393 123.845C435.642 123.093 434.623 122.671 433.561 122.671H244.703Z" fill="#E6E6E6"/>
<path d="M244.703 146.708C243.641 146.708 242.622 147.13 241.87 147.881C241.119 148.632 240.697 149.651 240.697 150.714C240.697 151.776 241.119 152.795 241.87 153.546C242.622 154.298 243.641 154.72 244.703 154.72H325.969C327.031 154.72 328.05 154.298 328.802 153.546C329.553 152.795 329.975 151.776 329.975 150.714C329.975 149.651 329.553 148.632 328.802 147.881C328.05 147.13 327.031 146.708 325.969 146.708H244.703Z" fill="#E6E6E6"/>
</svg>
