<svg width="598" height="477" viewBox="0 0 598 477" fill="none" xmlns="http://www.w3.org/2000/svg">
<path d="M579.209 476.963H18.7911C13.8074 476.963 9.0278 474.983 5.50378 471.459C1.97977 467.935 0 463.156 0 458.172C203.151 434.562 402.485 434.562 598 458.172C598 463.156 596.02 467.935 592.496 471.459C588.972 474.983 584.193 476.963 579.209 476.963Z" fill="#2F2E41"/>
<path d="M598 459.277L0 458.172L69.3061 341.556L69.6377 341.004V83.9964C69.6374 80.8768 70.2517 77.7878 71.4454 74.9057C72.639 72.0236 74.3887 69.4049 76.5946 67.199C78.8004 64.9932 81.4191 63.2435 84.3012 62.0498C87.1833 60.8561 90.2724 60.2419 93.3919 60.2422H501.292C504.412 60.2419 507.501 60.8561 510.383 62.0498C513.265 63.2435 515.883 64.9932 518.089 67.199C520.295 69.4049 522.045 72.0236 523.239 74.9057C524.432 77.7878 525.046 80.8768 525.046 83.9964V342.772L598 459.277Z" fill="#9B9AAD"/>
<path d="M92.8503 76.8225C90.7989 76.8248 88.8321 77.6408 87.3816 79.0914C85.931 80.5419 85.1151 82.5086 85.1128 84.5601V318.896C85.1152 320.948 85.9311 322.915 87.3817 324.365C88.8322 325.816 90.7989 326.632 92.8503 326.634H505.15C507.201 326.632 509.168 325.816 510.618 324.365C512.069 322.914 512.885 320.948 512.887 318.896V84.5601C512.885 82.5087 512.069 80.542 510.618 79.0915C509.168 77.6409 507.201 76.8249 505.15 76.8225H92.8503Z" fill="white"/>
<path d="M94.578 357.584C93.944 357.585 93.3236 357.767 92.7899 358.109C92.2561 358.451 91.8312 358.939 91.5652 359.514L70.2098 405.939C69.9773 406.445 69.8757 407 69.9141 407.555C69.9526 408.11 70.13 408.646 70.43 409.114C70.73 409.582 71.1429 409.968 71.6308 410.235C72.1187 410.501 72.6659 410.641 73.222 410.641H522.314C522.879 410.641 523.435 410.497 523.929 410.222C524.423 409.946 524.838 409.549 525.135 409.069C525.432 408.588 525.601 408.039 525.626 407.474C525.652 406.909 525.532 406.348 525.279 405.842L502.067 359.417C501.793 358.865 501.37 358.401 500.846 358.077C500.322 357.753 499.718 357.582 499.102 357.584H94.578Z" fill="#2F2E41"/>
<path d="M297.342 72.9538C300.089 72.9538 302.316 70.7268 302.316 67.9797C302.316 65.2325 300.089 63.0056 297.342 63.0056C294.595 63.0056 292.368 65.2325 292.368 67.9797C292.368 70.7268 294.595 72.9538 297.342 72.9538Z" fill="white"/>
<path d="M253.2 419.484C252.471 419.485 251.763 419.726 251.184 420.169C250.605 420.613 250.189 421.234 249.998 421.938L244.641 441.834C244.509 442.326 244.491 442.841 244.59 443.341C244.689 443.84 244.901 444.31 245.211 444.714C245.521 445.118 245.919 445.445 246.375 445.671C246.832 445.896 247.334 446.013 247.843 446.013H349.717C350.246 446.013 350.767 445.887 351.237 445.644C351.706 445.402 352.112 445.051 352.418 444.62C352.725 444.189 352.924 443.692 352.999 443.168C353.074 442.645 353.023 442.112 352.85 441.612L345.963 421.715C345.737 421.064 345.314 420.499 344.752 420.099C344.191 419.7 343.519 419.485 342.829 419.484H253.2Z" fill="#2F2E41"/>
<path d="M525.046 337.135V341.556H69.306L69.649 341.004V337.135H525.046Z" fill="#2F2E41"/>
<path d="M512.335 154.75C555.068 154.75 589.71 120.108 589.71 77.3752C589.71 34.6421 555.068 0 512.335 0C469.601 0 434.959 34.6421 434.959 77.3752C434.959 120.108 469.601 154.75 512.335 154.75Z" fill="#536DFE"/>
<path d="M544.39 111.089H480.279C479.107 111.088 477.983 110.621 477.154 109.792C476.325 108.964 475.859 107.84 475.858 106.667V67.9797C475.859 66.8074 476.325 65.6835 477.154 64.8546C477.983 64.0257 479.107 63.5595 480.279 63.5582H544.39C545.562 63.5595 546.686 64.0257 547.515 64.8546C548.344 65.6835 548.81 66.8074 548.811 67.9797V106.667C548.81 107.84 548.344 108.964 547.515 109.792C546.686 110.621 545.562 111.088 544.39 111.089ZM480.279 67.9797V106.667H544.393L544.39 67.9797L480.279 67.9797Z" fill="white"/>
<path d="M532.231 67.9797H492.438V50.2939C492.438 37.484 500.806 28.1867 512.335 28.1867C523.863 28.1867 532.231 37.484 532.231 50.2939L532.231 67.9797ZM496.859 63.5582H527.81V50.2939C527.81 39.8809 521.446 32.6081 512.335 32.6081C503.223 32.6081 496.86 39.8809 496.86 50.2939L496.859 63.5582Z" fill="white"/>
<path d="M512.335 90.6395C514.776 90.6395 516.756 88.66 516.756 86.2181C516.756 83.7762 514.776 81.7967 512.335 81.7967C509.893 81.7967 507.913 83.7762 507.913 86.2181C507.913 88.66 509.893 90.6395 512.335 90.6395Z" fill="white"/>
<path d="M458.32 247.149H139.68C138.116 247.148 136.616 246.525 135.51 245.419C134.403 244.313 133.781 242.813 133.779 241.249V162.208C133.781 160.643 134.403 159.144 135.51 158.037C136.616 156.931 138.116 156.309 139.68 156.307H458.32C459.884 156.309 461.384 156.931 462.49 158.037C463.597 159.144 464.219 160.643 464.221 162.208V241.249C464.219 242.813 463.597 244.313 462.49 245.419C461.384 246.525 459.884 247.148 458.32 247.149V247.149ZM139.68 158.667C138.741 158.668 137.841 159.042 137.178 159.705C136.514 160.369 136.141 161.269 136.14 162.208V241.249C136.141 242.187 136.514 243.087 137.178 243.751C137.841 244.415 138.741 244.788 139.68 244.789H458.32C459.259 244.788 460.159 244.415 460.822 243.751C461.486 243.087 461.859 242.187 461.86 241.249V162.208C461.859 161.269 461.486 160.369 460.822 159.705C460.159 159.042 459.259 158.668 458.32 158.667L139.68 158.667Z" fill="#E6E6E6"/>
<path d="M189.19 222.732C202.465 222.732 213.227 211.97 213.227 198.695C213.227 185.421 202.465 174.659 189.19 174.659C175.915 174.659 165.154 185.421 165.154 198.695C165.154 211.97 175.915 222.732 189.19 222.732Z" fill="#E6E6E6"/>
<path d="M244.703 182.671C244.176 182.67 243.655 182.773 243.168 182.974C242.681 183.175 242.239 183.47 241.866 183.842C241.494 184.214 241.198 184.656 240.996 185.143C240.794 185.629 240.691 186.151 240.691 186.677C240.691 187.204 240.794 187.725 240.996 188.212C241.198 188.698 241.494 189.14 241.866 189.512C242.239 189.884 242.681 190.179 243.168 190.38C243.655 190.581 244.176 190.684 244.703 190.683H433.561C434.623 190.683 435.642 190.261 436.393 189.51C437.145 188.759 437.567 187.74 437.567 186.677C437.567 185.615 437.145 184.596 436.393 183.845C435.642 183.093 434.623 182.671 433.561 182.671H244.703Z" fill="#E6E6E6"/>
<path d="M244.703 206.708C243.641 206.708 242.622 207.13 241.87 207.881C241.119 208.632 240.697 209.651 240.697 210.714C240.697 211.776 241.119 212.795 241.87 213.546C242.622 214.298 243.641 214.72 244.703 214.72H325.969C327.031 214.72 328.05 214.298 328.802 213.546C329.553 212.795 329.975 211.776 329.975 210.714C329.975 209.651 329.553 208.632 328.802 207.881C328.05 207.13 327.031 206.708 325.969 206.708H244.703Z" fill="#E6E6E6"/>
</svg>
